<svg xmlns="http://www.w3.org/2000/svg" xmlns:xlink="http://www.w3.org/1999/xlink" width="512" height="512" viewBox="0 0 512 512">
  <defs>
    <circle id="icon_512x512-b" cx="256" cy="256" r="225"/>
    <filter id="icon_512x512-a" width="103.1%" height="103.1%" x="-1.6%" y="-1.1%" filterUnits="objectBoundingBox">
      <feOffset dy="2" in="SourceAlpha" result="shadowOffsetOuter1"/>
      <feGaussianBlur in="shadowOffsetOuter1" result="shadowBlurOuter1" stdDeviation="2"/>
      <feColorMatrix in="shadowBlurOuter1" values="0 0 0 0 0   0 0 0 0 0   0 0 0 0 0  0 0 0 0.5 0"/>
    </filter>
  </defs>
  <g fill="none" fill-rule="evenodd">
    <use fill="#000" filter="url(#icon_512x512-a)" xlink:href="#icon_512x512-b"/>
    <use fill="#F7F7F7" xlink:href="#icon_512x512-b"/>
    <path fill="#4A90E2" d="M213.848214,198.015 C213.848214,217.9701 209.17713,236.134085 199.834821,252.5075 C190.492513,268.880915 177.695022,281.736412 161.441964,291.074375 C145.188907,300.412338 127.080457,305.08125 107.116071,305.08125 C87.1516859,305.08125 69.043236,300.412338 52.7901786,291.074375 C36.5371211,281.736412 23.73963,268.880915 14.3973214,252.5075 C5.05501281,236.134085 0.383928571,217.9701 0.383928571,198.015 C0.383928571,178.0599 4.9270379,159.959873 14.0133929,143.714375 C23.0997478,127.468877 35.5133142,114.677338 51.2544643,105.339375 C66.9956144,96.0014116 84.5921646,91.3325 104.044643,91.3325 C120.681631,91.3325 135.910645,94.8501732 149.732143,101.885625 C163.553641,108.921077 174.943408,122.032439 183.901786,134.3125 L183.901786,18.42 C183.901786,14.0708116 185.30951,10.4891807 188.125,7.675 C190.94049,4.86081926 194.523788,3.45375 198.875,3.45375 C203.226212,3.45375 206.745522,4.86081926 209.433036,7.675 C212.120549,10.4891807 213.464286,14.0708116 213.464286,18.42 L213.848214,198.015 Z M107.116071,278.21875 C121.70543,278.21875 134.886846,274.701077 146.660714,267.665625 C158.434583,260.630173 167.712764,251.036519 174.495536,238.884375 C181.278308,226.732231 184.669643,213.109242 184.669643,198.015 C184.669643,193.665812 184.541668,190.467927 184.285714,188.42125 C184.029761,187.909581 183.901786,187.270004 183.901786,186.5025 C181.342249,166.5474 172.959892,150.174231 158.754464,137.3825 C144.549036,124.590769 127.336411,118.195 107.116071,118.195 C92.5267128,118.195 79.2813095,121.648715 67.3794643,128.55625 C55.4776191,135.463785 46.1354506,144.993481 39.3526786,157.145625 C32.5699066,169.297769 29.1785714,182.920758 29.1785714,198.015 C29.1785714,213.109242 32.5699066,226.732231 39.3526786,238.884375 C46.1354506,251.036519 55.4776191,260.630173 67.3794643,267.665625 C79.2813095,274.701077 92.5267128,278.21875 107.116071,278.21875 Z" transform="translate(149 103)"/>
  </g>
</svg>
